<mxfile host="Electron" modified="2023-12-14T10:55:50.456Z" agent="Mozilla/5.0 (Macintosh; Intel Mac OS X 10_15_7) AppleWebKit/537.36 (KHTML, like Gecko) draw.io/22.1.2 Chrome/114.0.5735.289 Electron/25.9.4 Safari/537.36" etag="VYyYYl31Tg_knAodlMWV" version="22.1.2" type="device">
  <diagram name="페이지-1" id="nX3qnI_A7cCaZvHu2Gjx">
    <mxGraphModel dx="1170" dy="856" grid="1" gridSize="10" guides="1" tooltips="1" connect="1" arrows="1" fold="1" page="1" pageScale="1" pageWidth="827" pageHeight="1169" math="0" shadow="0">
      <root>
        <mxCell id="0" />
        <mxCell id="1" parent="0" />
        <mxCell id="Xd6IAp-0N0bOBobcrJcN-12" style="edgeStyle=orthogonalEdgeStyle;rounded=0;orthogonalLoop=1;jettySize=auto;html=1;entryX=0;entryY=0.5;entryDx=0;entryDy=0;" parent="1" source="Xd6IAp-0N0bOBobcrJcN-2" target="Xd6IAp-0N0bOBobcrJcN-8" edge="1">
          <mxGeometry relative="1" as="geometry" />
        </mxCell>
        <mxCell id="mlwBSb566yAW6RC_EAfB-28" value="" style="edgeStyle=orthogonalEdgeStyle;rounded=0;orthogonalLoop=1;jettySize=auto;html=1;" edge="1" parent="1" source="Xd6IAp-0N0bOBobcrJcN-2" target="mlwBSb566yAW6RC_EAfB-27">
          <mxGeometry relative="1" as="geometry">
            <Array as="points">
              <mxPoint x="105" y="555" />
            </Array>
          </mxGeometry>
        </mxCell>
        <mxCell id="Xd6IAp-0N0bOBobcrJcN-2" value="링크드리스트" style="shape=cylinder3;whiteSpace=wrap;html=1;boundedLbl=1;backgroundOutline=1;size=15;" parent="1" vertex="1">
          <mxGeometry x="60" y="180" width="90" height="80" as="geometry" />
        </mxCell>
        <mxCell id="Xd6IAp-0N0bOBobcrJcN-15" style="edgeStyle=orthogonalEdgeStyle;rounded=0;orthogonalLoop=1;jettySize=auto;html=1;exitX=1;exitY=0.5;exitDx=0;exitDy=0;" parent="1" source="Xd6IAp-0N0bOBobcrJcN-8" target="Xd6IAp-0N0bOBobcrJcN-10" edge="1">
          <mxGeometry relative="1" as="geometry" />
        </mxCell>
        <mxCell id="Xd6IAp-0N0bOBobcrJcN-16" style="edgeStyle=orthogonalEdgeStyle;rounded=0;orthogonalLoop=1;jettySize=auto;html=1;exitX=1;exitY=0.5;exitDx=0;exitDy=0;entryX=0;entryY=0.5;entryDx=0;entryDy=0;" parent="1" source="Xd6IAp-0N0bOBobcrJcN-8" target="Xd6IAp-0N0bOBobcrJcN-11" edge="1">
          <mxGeometry relative="1" as="geometry" />
        </mxCell>
        <mxCell id="Xd6IAp-0N0bOBobcrJcN-17" style="edgeStyle=orthogonalEdgeStyle;rounded=0;orthogonalLoop=1;jettySize=auto;html=1;entryX=0;entryY=0.5;entryDx=0;entryDy=0;" parent="1" source="Xd6IAp-0N0bOBobcrJcN-8" target="Xd6IAp-0N0bOBobcrJcN-13" edge="1">
          <mxGeometry relative="1" as="geometry" />
        </mxCell>
        <mxCell id="Xd6IAp-0N0bOBobcrJcN-18" style="edgeStyle=orthogonalEdgeStyle;rounded=0;orthogonalLoop=1;jettySize=auto;html=1;entryX=0;entryY=0.5;entryDx=0;entryDy=0;" parent="1" source="Xd6IAp-0N0bOBobcrJcN-8" target="Xd6IAp-0N0bOBobcrJcN-14" edge="1">
          <mxGeometry relative="1" as="geometry" />
        </mxCell>
        <mxCell id="Xd6IAp-0N0bOBobcrJcN-8" value="feature" style="whiteSpace=wrap;html=1;" parent="1" vertex="1">
          <mxGeometry x="230" y="190" width="120" height="60" as="geometry" />
        </mxCell>
        <mxCell id="Xd6IAp-0N0bOBobcrJcN-10" value="Node* head" style="whiteSpace=wrap;html=1;" parent="1" vertex="1">
          <mxGeometry x="390" y="190" width="120" height="60" as="geometry" />
        </mxCell>
        <mxCell id="Xd6IAp-0N0bOBobcrJcN-11" value="Node* tail" style="whiteSpace=wrap;html=1;" parent="1" vertex="1">
          <mxGeometry x="390" y="270" width="120" height="60" as="geometry" />
        </mxCell>
        <mxCell id="Xd6IAp-0N0bOBobcrJcN-13" value="Vector&amp;lt;*Node&amp;gt; Nodearr" style="whiteSpace=wrap;html=1;" parent="1" vertex="1">
          <mxGeometry x="390" y="350" width="120" height="60" as="geometry" />
        </mxCell>
        <mxCell id="Xd6IAp-0N0bOBobcrJcN-14" value="int Nodenum" style="whiteSpace=wrap;html=1;" parent="1" vertex="1">
          <mxGeometry x="390" y="430" width="120" height="60" as="geometry" />
        </mxCell>
        <mxCell id="mlwBSb566yAW6RC_EAfB-73" value="" style="edgeStyle=orthogonalEdgeStyle;rounded=0;orthogonalLoop=1;jettySize=auto;html=1;" edge="1" parent="1" source="mlwBSb566yAW6RC_EAfB-1" target="mlwBSb566yAW6RC_EAfB-72">
          <mxGeometry relative="1" as="geometry">
            <Array as="points">
              <mxPoint x="930" y="640" />
              <mxPoint x="930" y="480" />
            </Array>
          </mxGeometry>
        </mxCell>
        <mxCell id="mlwBSb566yAW6RC_EAfB-1" value="tail에 노드 추가" style="whiteSpace=wrap;html=1;" vertex="1" parent="1">
          <mxGeometry x="390" y="610" width="120" height="60" as="geometry" />
        </mxCell>
        <mxCell id="mlwBSb566yAW6RC_EAfB-75" value="" style="edgeStyle=orthogonalEdgeStyle;rounded=0;orthogonalLoop=1;jettySize=auto;html=1;" edge="1" parent="1" source="mlwBSb566yAW6RC_EAfB-2" target="mlwBSb566yAW6RC_EAfB-74">
          <mxGeometry relative="1" as="geometry" />
        </mxCell>
        <mxCell id="mlwBSb566yAW6RC_EAfB-99" value="" style="edgeStyle=orthogonalEdgeStyle;rounded=0;orthogonalLoop=1;jettySize=auto;html=1;" edge="1" parent="1" source="mlwBSb566yAW6RC_EAfB-2" target="mlwBSb566yAW6RC_EAfB-3">
          <mxGeometry relative="1" as="geometry" />
        </mxCell>
        <mxCell id="mlwBSb566yAW6RC_EAfB-2" value="리스트 n번째에 노드 추가&amp;nbsp;" style="whiteSpace=wrap;html=1;" vertex="1" parent="1">
          <mxGeometry x="390" y="700" width="120" height="60" as="geometry" />
        </mxCell>
        <mxCell id="mlwBSb566yAW6RC_EAfB-46" value="" style="edgeStyle=orthogonalEdgeStyle;rounded=0;orthogonalLoop=1;jettySize=auto;html=1;" edge="1" parent="1" source="mlwBSb566yAW6RC_EAfB-3" target="mlwBSb566yAW6RC_EAfB-60">
          <mxGeometry relative="1" as="geometry" />
        </mxCell>
        <mxCell id="mlwBSb566yAW6RC_EAfB-3" value="x번째 인덱스에 노드 y개 삭제" style="whiteSpace=wrap;html=1;" vertex="1" parent="1">
          <mxGeometry x="390" y="790" width="120" height="60" as="geometry" />
        </mxCell>
        <mxCell id="mlwBSb566yAW6RC_EAfB-10" value="" style="edgeStyle=orthogonalEdgeStyle;rounded=0;orthogonalLoop=1;jettySize=auto;html=1;" edge="1" parent="1" source="mlwBSb566yAW6RC_EAfB-4" target="mlwBSb566yAW6RC_EAfB-9">
          <mxGeometry relative="1" as="geometry" />
        </mxCell>
        <mxCell id="mlwBSb566yAW6RC_EAfB-12" value="" style="edgeStyle=orthogonalEdgeStyle;rounded=0;orthogonalLoop=1;jettySize=auto;html=1;" edge="1" parent="1" source="mlwBSb566yAW6RC_EAfB-4" target="mlwBSb566yAW6RC_EAfB-9">
          <mxGeometry relative="1" as="geometry" />
        </mxCell>
        <mxCell id="mlwBSb566yAW6RC_EAfB-19" value="" style="edgeStyle=orthogonalEdgeStyle;rounded=0;orthogonalLoop=1;jettySize=auto;html=1;" edge="1" parent="1" source="mlwBSb566yAW6RC_EAfB-4" target="mlwBSb566yAW6RC_EAfB-18">
          <mxGeometry relative="1" as="geometry">
            <Array as="points">
              <mxPoint x="595" y="300" />
            </Array>
          </mxGeometry>
        </mxCell>
        <mxCell id="mlwBSb566yAW6RC_EAfB-4" value="node" style="shape=cylinder3;whiteSpace=wrap;html=1;boundedLbl=1;backgroundOutline=1;size=15;" vertex="1" parent="1">
          <mxGeometry x="550" y="170" width="90" height="80" as="geometry" />
        </mxCell>
        <mxCell id="mlwBSb566yAW6RC_EAfB-21" value="" style="edgeStyle=orthogonalEdgeStyle;rounded=0;orthogonalLoop=1;jettySize=auto;html=1;" edge="1" parent="1" source="mlwBSb566yAW6RC_EAfB-9">
          <mxGeometry relative="1" as="geometry">
            <mxPoint x="905" y="210" as="targetPoint" />
          </mxGeometry>
        </mxCell>
        <mxCell id="mlwBSb566yAW6RC_EAfB-9" value="특성" style="whiteSpace=wrap;html=1;" vertex="1" parent="1">
          <mxGeometry x="705" y="180" width="120" height="60" as="geometry" />
        </mxCell>
        <mxCell id="mlwBSb566yAW6RC_EAfB-18" value="메서드" style="whiteSpace=wrap;html=1;" vertex="1" parent="1">
          <mxGeometry x="705" y="270" width="120" height="60" as="geometry" />
        </mxCell>
        <mxCell id="mlwBSb566yAW6RC_EAfB-20" value="Node* next" style="whiteSpace=wrap;html=1;" vertex="1" parent="1">
          <mxGeometry x="905" y="180" width="120" height="60" as="geometry" />
        </mxCell>
        <mxCell id="mlwBSb566yAW6RC_EAfB-22" value="int val" style="whiteSpace=wrap;html=1;" vertex="1" parent="1">
          <mxGeometry x="905" y="270" width="120" height="60" as="geometry" />
        </mxCell>
        <mxCell id="mlwBSb566yAW6RC_EAfB-23" value="" style="edgeStyle=orthogonalEdgeStyle;rounded=0;orthogonalLoop=1;jettySize=auto;html=1;entryX=0;entryY=0.5;entryDx=0;entryDy=0;exitX=1;exitY=0.5;exitDx=0;exitDy=0;" edge="1" parent="1" source="mlwBSb566yAW6RC_EAfB-9" target="mlwBSb566yAW6RC_EAfB-22">
          <mxGeometry relative="1" as="geometry">
            <mxPoint x="835" y="220" as="sourcePoint" />
            <mxPoint x="915" y="220" as="targetPoint" />
          </mxGeometry>
        </mxCell>
        <mxCell id="mlwBSb566yAW6RC_EAfB-30" style="edgeStyle=orthogonalEdgeStyle;rounded=0;orthogonalLoop=1;jettySize=auto;html=1;entryX=0;entryY=0.5;entryDx=0;entryDy=0;" edge="1" parent="1" source="mlwBSb566yAW6RC_EAfB-27" target="mlwBSb566yAW6RC_EAfB-1">
          <mxGeometry relative="1" as="geometry" />
        </mxCell>
        <mxCell id="mlwBSb566yAW6RC_EAfB-32" style="edgeStyle=orthogonalEdgeStyle;rounded=0;orthogonalLoop=1;jettySize=auto;html=1;entryX=0;entryY=0.5;entryDx=0;entryDy=0;" edge="1" parent="1" source="mlwBSb566yAW6RC_EAfB-27" target="mlwBSb566yAW6RC_EAfB-3">
          <mxGeometry relative="1" as="geometry" />
        </mxCell>
        <mxCell id="mlwBSb566yAW6RC_EAfB-33" style="edgeStyle=orthogonalEdgeStyle;rounded=0;orthogonalLoop=1;jettySize=auto;html=1;exitX=1;exitY=0.5;exitDx=0;exitDy=0;entryX=0;entryY=0.5;entryDx=0;entryDy=0;" edge="1" parent="1" source="mlwBSb566yAW6RC_EAfB-27" target="mlwBSb566yAW6RC_EAfB-2">
          <mxGeometry relative="1" as="geometry" />
        </mxCell>
        <mxCell id="mlwBSb566yAW6RC_EAfB-85" value="" style="edgeStyle=orthogonalEdgeStyle;rounded=0;orthogonalLoop=1;jettySize=auto;html=1;" edge="1" parent="1" source="mlwBSb566yAW6RC_EAfB-27" target="mlwBSb566yAW6RC_EAfB-84">
          <mxGeometry relative="1" as="geometry" />
        </mxCell>
        <mxCell id="mlwBSb566yAW6RC_EAfB-98" value="" style="edgeStyle=orthogonalEdgeStyle;rounded=0;orthogonalLoop=1;jettySize=auto;html=1;exitX=1;exitY=0.5;exitDx=0;exitDy=0;entryX=0;entryY=0.5;entryDx=0;entryDy=0;" edge="1" parent="1" source="mlwBSb566yAW6RC_EAfB-27" target="mlwBSb566yAW6RC_EAfB-97">
          <mxGeometry relative="1" as="geometry">
            <mxPoint x="249.98000000000002" y="599.9976190476191" as="sourcePoint" />
            <mxPoint x="350.0276190476188" y="924.95" as="targetPoint" />
          </mxGeometry>
        </mxCell>
        <mxCell id="mlwBSb566yAW6RC_EAfB-27" value="method" style="whiteSpace=wrap;html=1;" vertex="1" parent="1">
          <mxGeometry x="230" y="525" width="120" height="60" as="geometry" />
        </mxCell>
        <mxCell id="mlwBSb566yAW6RC_EAfB-38" value="" style="edgeStyle=orthogonalEdgeStyle;rounded=0;orthogonalLoop=1;jettySize=auto;html=1;" edge="1" parent="1" source="mlwBSb566yAW6RC_EAfB-36" target="mlwBSb566yAW6RC_EAfB-37">
          <mxGeometry relative="1" as="geometry" />
        </mxCell>
        <mxCell id="mlwBSb566yAW6RC_EAfB-41" value="" style="edgeStyle=orthogonalEdgeStyle;rounded=0;orthogonalLoop=1;jettySize=auto;html=1;" edge="1" parent="1" source="mlwBSb566yAW6RC_EAfB-36" target="mlwBSb566yAW6RC_EAfB-40">
          <mxGeometry relative="1" as="geometry">
            <Array as="points">
              <mxPoint x="130" y="1230" />
            </Array>
          </mxGeometry>
        </mxCell>
        <mxCell id="mlwBSb566yAW6RC_EAfB-78" value="" style="edgeStyle=orthogonalEdgeStyle;rounded=0;orthogonalLoop=1;jettySize=auto;html=1;" edge="1" parent="1" source="mlwBSb566yAW6RC_EAfB-36" target="mlwBSb566yAW6RC_EAfB-77">
          <mxGeometry relative="1" as="geometry">
            <Array as="points">
              <mxPoint x="130" y="1380" />
            </Array>
          </mxGeometry>
        </mxCell>
        <mxCell id="mlwBSb566yAW6RC_EAfB-36" value="codebattle3" style="whiteSpace=wrap;html=1;" vertex="1" parent="1">
          <mxGeometry x="40" y="1060" width="120" height="60" as="geometry" />
        </mxCell>
        <mxCell id="mlwBSb566yAW6RC_EAfB-90" value="" style="edgeStyle=orthogonalEdgeStyle;rounded=0;orthogonalLoop=1;jettySize=auto;html=1;" edge="1" parent="1" source="mlwBSb566yAW6RC_EAfB-37" target="mlwBSb566yAW6RC_EAfB-89">
          <mxGeometry relative="1" as="geometry" />
        </mxCell>
        <mxCell id="mlwBSb566yAW6RC_EAfB-37" value="A(y, s)" style="whiteSpace=wrap;html=1;" vertex="1" parent="1">
          <mxGeometry x="240" y="1060" width="120" height="60" as="geometry" />
        </mxCell>
        <mxCell id="mlwBSb566yAW6RC_EAfB-82" value="" style="edgeStyle=orthogonalEdgeStyle;rounded=0;orthogonalLoop=1;jettySize=auto;html=1;entryX=0;entryY=0.5;entryDx=0;entryDy=0;" edge="1" parent="1" source="mlwBSb566yAW6RC_EAfB-40" target="mlwBSb566yAW6RC_EAfB-115">
          <mxGeometry relative="1" as="geometry">
            <mxPoint x="440" y="1230" as="targetPoint" />
          </mxGeometry>
        </mxCell>
        <mxCell id="mlwBSb566yAW6RC_EAfB-40" value="I(x, y, s)" style="whiteSpace=wrap;html=1;" vertex="1" parent="1">
          <mxGeometry x="240" y="1200" width="120" height="60" as="geometry" />
        </mxCell>
        <mxCell id="mlwBSb566yAW6RC_EAfB-48" value="" style="edgeStyle=orthogonalEdgeStyle;rounded=0;orthogonalLoop=1;jettySize=auto;html=1;entryX=0.358;entryY=0.009;entryDx=0;entryDy=0;entryPerimeter=0;" edge="1" parent="1" source="mlwBSb566yAW6RC_EAfB-45" target="mlwBSb566yAW6RC_EAfB-47">
          <mxGeometry relative="1" as="geometry" />
        </mxCell>
        <mxCell id="mlwBSb566yAW6RC_EAfB-45" value="x번 반복" style="ellipse;whiteSpace=wrap;html=1;" vertex="1" parent="1">
          <mxGeometry x="1060" y="780" width="80" height="80" as="geometry" />
        </mxCell>
        <mxCell id="mlwBSb566yAW6RC_EAfB-49" style="edgeStyle=orthogonalEdgeStyle;rounded=0;orthogonalLoop=1;jettySize=auto;html=1;entryX=1;entryY=0.5;entryDx=0;entryDy=0;" edge="1" parent="1" source="mlwBSb566yAW6RC_EAfB-47" target="mlwBSb566yAW6RC_EAfB-45">
          <mxGeometry relative="1" as="geometry">
            <Array as="points">
              <mxPoint x="1180" y="820" />
            </Array>
          </mxGeometry>
        </mxCell>
        <mxCell id="mlwBSb566yAW6RC_EAfB-52" value="" style="edgeStyle=orthogonalEdgeStyle;rounded=0;orthogonalLoop=1;jettySize=auto;html=1;entryX=0.5;entryY=0;entryDx=0;entryDy=0;" edge="1" parent="1" source="mlwBSb566yAW6RC_EAfB-47" target="mlwBSb566yAW6RC_EAfB-66">
          <mxGeometry relative="1" as="geometry" />
        </mxCell>
        <mxCell id="mlwBSb566yAW6RC_EAfB-47" value="tmphead = tmphead.next" style="whiteSpace=wrap;html=1;" vertex="1" parent="1">
          <mxGeometry x="1040" y="890" width="170" height="60" as="geometry" />
        </mxCell>
        <mxCell id="mlwBSb566yAW6RC_EAfB-54" value="" style="edgeStyle=orthogonalEdgeStyle;rounded=0;orthogonalLoop=1;jettySize=auto;html=1;" edge="1" parent="1" source="mlwBSb566yAW6RC_EAfB-51" target="mlwBSb566yAW6RC_EAfB-53">
          <mxGeometry relative="1" as="geometry" />
        </mxCell>
        <mxCell id="mlwBSb566yAW6RC_EAfB-51" value="tmpnext = tmphead" style="whiteSpace=wrap;html=1;" vertex="1" parent="1">
          <mxGeometry x="1065" y="1010" width="120" height="60" as="geometry" />
        </mxCell>
        <mxCell id="mlwBSb566yAW6RC_EAfB-56" value="" style="edgeStyle=orthogonalEdgeStyle;rounded=0;orthogonalLoop=1;jettySize=auto;html=1;" edge="1" parent="1" source="mlwBSb566yAW6RC_EAfB-53" target="mlwBSb566yAW6RC_EAfB-55">
          <mxGeometry relative="1" as="geometry" />
        </mxCell>
        <mxCell id="mlwBSb566yAW6RC_EAfB-59" value="" style="edgeStyle=orthogonalEdgeStyle;rounded=0;orthogonalLoop=1;jettySize=auto;html=1;" edge="1" parent="1" source="mlwBSb566yAW6RC_EAfB-53" target="mlwBSb566yAW6RC_EAfB-58">
          <mxGeometry relative="1" as="geometry" />
        </mxCell>
        <mxCell id="mlwBSb566yAW6RC_EAfB-53" value="y번 반복" style="ellipse;whiteSpace=wrap;html=1;" vertex="1" parent="1">
          <mxGeometry x="1085" y="1100" width="80" height="80" as="geometry" />
        </mxCell>
        <mxCell id="mlwBSb566yAW6RC_EAfB-57" style="edgeStyle=orthogonalEdgeStyle;rounded=0;orthogonalLoop=1;jettySize=auto;html=1;entryX=1;entryY=0.5;entryDx=0;entryDy=0;" edge="1" parent="1" source="mlwBSb566yAW6RC_EAfB-55" target="mlwBSb566yAW6RC_EAfB-51">
          <mxGeometry relative="1" as="geometry">
            <Array as="points">
              <mxPoint x="1280" y="1040" />
            </Array>
          </mxGeometry>
        </mxCell>
        <mxCell id="mlwBSb566yAW6RC_EAfB-55" value="tmpnext = tmpnext.next" style="whiteSpace=wrap;html=1;" vertex="1" parent="1">
          <mxGeometry x="1225" y="1110" width="120" height="60" as="geometry" />
        </mxCell>
        <mxCell id="mlwBSb566yAW6RC_EAfB-58" value="tmphead.next = tmpnext" style="whiteSpace=wrap;html=1;" vertex="1" parent="1">
          <mxGeometry x="1065" y="1230" width="120" height="60" as="geometry" />
        </mxCell>
        <mxCell id="mlwBSb566yAW6RC_EAfB-61" style="edgeStyle=orthogonalEdgeStyle;rounded=0;orthogonalLoop=1;jettySize=auto;html=1;entryX=0;entryY=0.5;entryDx=0;entryDy=0;" edge="1" parent="1" source="mlwBSb566yAW6RC_EAfB-60" target="mlwBSb566yAW6RC_EAfB-45">
          <mxGeometry relative="1" as="geometry" />
        </mxCell>
        <mxCell id="mlwBSb566yAW6RC_EAfB-64" value="" style="edgeStyle=orthogonalEdgeStyle;rounded=0;orthogonalLoop=1;jettySize=auto;html=1;" edge="1" parent="1" source="mlwBSb566yAW6RC_EAfB-60" target="mlwBSb566yAW6RC_EAfB-63">
          <mxGeometry relative="1" as="geometry" />
        </mxCell>
        <mxCell id="mlwBSb566yAW6RC_EAfB-60" value="x 가 Nodenum보다 큰가?" style="rhombus;whiteSpace=wrap;html=1;" vertex="1" parent="1">
          <mxGeometry x="705" y="785" width="190" height="70" as="geometry" />
        </mxCell>
        <mxCell id="mlwBSb566yAW6RC_EAfB-63" value="break" style="whiteSpace=wrap;html=1;" vertex="1" parent="1">
          <mxGeometry x="740" y="940" width="120" height="60" as="geometry" />
        </mxCell>
        <mxCell id="mlwBSb566yAW6RC_EAfB-67" style="edgeStyle=orthogonalEdgeStyle;rounded=0;orthogonalLoop=1;jettySize=auto;html=1;entryX=0.5;entryY=0;entryDx=0;entryDy=0;" edge="1" parent="1" source="mlwBSb566yAW6RC_EAfB-66" target="mlwBSb566yAW6RC_EAfB-51">
          <mxGeometry relative="1" as="geometry" />
        </mxCell>
        <mxCell id="mlwBSb566yAW6RC_EAfB-68" value="no" style="edgeLabel;html=1;align=center;verticalAlign=middle;resizable=0;points=[];" vertex="1" connectable="0" parent="mlwBSb566yAW6RC_EAfB-67">
          <mxGeometry x="0.2313" y="-6" relative="1" as="geometry">
            <mxPoint as="offset" />
          </mxGeometry>
        </mxCell>
        <mxCell id="mlwBSb566yAW6RC_EAfB-70" value="" style="edgeStyle=orthogonalEdgeStyle;rounded=0;orthogonalLoop=1;jettySize=auto;html=1;" edge="1" parent="1" source="mlwBSb566yAW6RC_EAfB-66" target="mlwBSb566yAW6RC_EAfB-69">
          <mxGeometry relative="1" as="geometry" />
        </mxCell>
        <mxCell id="mlwBSb566yAW6RC_EAfB-71" value="yes" style="edgeLabel;html=1;align=center;verticalAlign=middle;resizable=0;points=[];" vertex="1" connectable="0" parent="mlwBSb566yAW6RC_EAfB-70">
          <mxGeometry x="-0.3056" relative="1" as="geometry">
            <mxPoint as="offset" />
          </mxGeometry>
        </mxCell>
        <mxCell id="mlwBSb566yAW6RC_EAfB-66" value="x + y &amp;gt; Nodenum인가?" style="rhombus;whiteSpace=wrap;html=1;" vertex="1" parent="1">
          <mxGeometry x="1290" y="940" width="185" height="80" as="geometry" />
        </mxCell>
        <mxCell id="mlwBSb566yAW6RC_EAfB-69" value="tmphead.next = nullptr&lt;br&gt;tail = tmphead" style="whiteSpace=wrap;html=1;" vertex="1" parent="1">
          <mxGeometry x="1587.5" y="950" width="152.5" height="60" as="geometry" />
        </mxCell>
        <mxCell id="mlwBSb566yAW6RC_EAfB-80" value="" style="edgeStyle=orthogonalEdgeStyle;rounded=0;orthogonalLoop=1;jettySize=auto;html=1;" edge="1" parent="1" source="mlwBSb566yAW6RC_EAfB-72" target="mlwBSb566yAW6RC_EAfB-79">
          <mxGeometry relative="1" as="geometry" />
        </mxCell>
        <mxCell id="mlwBSb566yAW6RC_EAfB-105" value="" style="edgeStyle=orthogonalEdgeStyle;rounded=0;orthogonalLoop=1;jettySize=auto;html=1;" edge="1" parent="1" source="mlwBSb566yAW6RC_EAfB-72" target="mlwBSb566yAW6RC_EAfB-104">
          <mxGeometry relative="1" as="geometry" />
        </mxCell>
        <mxCell id="mlwBSb566yAW6RC_EAfB-72" value="head == nullptr?" style="rhombus;whiteSpace=wrap;html=1;" vertex="1" parent="1">
          <mxGeometry x="1440" y="440" width="190" height="80" as="geometry" />
        </mxCell>
        <mxCell id="mlwBSb566yAW6RC_EAfB-111" value="yes" style="edgeStyle=orthogonalEdgeStyle;rounded=0;orthogonalLoop=1;jettySize=auto;html=1;entryX=0;entryY=0.5;entryDx=0;entryDy=0;" edge="1" parent="1" source="mlwBSb566yAW6RC_EAfB-74" target="mlwBSb566yAW6RC_EAfB-110">
          <mxGeometry relative="1" as="geometry" />
        </mxCell>
        <mxCell id="mlwBSb566yAW6RC_EAfB-125" value="" style="edgeStyle=orthogonalEdgeStyle;rounded=0;orthogonalLoop=1;jettySize=auto;html=1;" edge="1" parent="1" source="mlwBSb566yAW6RC_EAfB-74" target="mlwBSb566yAW6RC_EAfB-124">
          <mxGeometry relative="1" as="geometry" />
        </mxCell>
        <mxCell id="mlwBSb566yAW6RC_EAfB-74" value="head == nullptr?" style="rhombus;whiteSpace=wrap;html=1;" vertex="1" parent="1">
          <mxGeometry x="1790" y="690" width="180" height="80" as="geometry" />
        </mxCell>
        <mxCell id="mlwBSb566yAW6RC_EAfB-77" value="D(x, y)" style="whiteSpace=wrap;html=1;" vertex="1" parent="1">
          <mxGeometry x="240" y="1350" width="120" height="60" as="geometry" />
        </mxCell>
        <mxCell id="mlwBSb566yAW6RC_EAfB-109" style="edgeStyle=orthogonalEdgeStyle;rounded=0;orthogonalLoop=1;jettySize=auto;html=1;entryX=0.5;entryY=0;entryDx=0;entryDy=0;" edge="1" parent="1" source="mlwBSb566yAW6RC_EAfB-79" target="mlwBSb566yAW6RC_EAfB-106">
          <mxGeometry relative="1" as="geometry" />
        </mxCell>
        <mxCell id="mlwBSb566yAW6RC_EAfB-79" value="head = nodearr[0]" style="whiteSpace=wrap;html=1;" vertex="1" parent="1">
          <mxGeometry x="1691.25" y="450" width="115" height="60" as="geometry" />
        </mxCell>
        <mxCell id="mlwBSb566yAW6RC_EAfB-87" value="" style="edgeStyle=orthogonalEdgeStyle;rounded=0;orthogonalLoop=1;jettySize=auto;html=1;" edge="1" parent="1" source="mlwBSb566yAW6RC_EAfB-84" target="mlwBSb566yAW6RC_EAfB-86">
          <mxGeometry relative="1" as="geometry" />
        </mxCell>
        <mxCell id="mlwBSb566yAW6RC_EAfB-84" value="Nodearr 초기화" style="whiteSpace=wrap;html=1;" vertex="1" parent="1">
          <mxGeometry x="390" y="525" width="120" height="60" as="geometry" />
        </mxCell>
        <mxCell id="mlwBSb566yAW6RC_EAfB-86" value="Nodearr = { }&amp;nbsp;" style="whiteSpace=wrap;html=1;" vertex="1" parent="1">
          <mxGeometry x="740" y="525" width="120" height="60" as="geometry" />
        </mxCell>
        <mxCell id="mlwBSb566yAW6RC_EAfB-101" value="" style="edgeStyle=orthogonalEdgeStyle;rounded=0;orthogonalLoop=1;jettySize=auto;html=1;" edge="1" parent="1" source="mlwBSb566yAW6RC_EAfB-89" target="mlwBSb566yAW6RC_EAfB-100">
          <mxGeometry relative="1" as="geometry" />
        </mxCell>
        <mxCell id="mlwBSb566yAW6RC_EAfB-89" value="y회 반복" style="ellipse;whiteSpace=wrap;html=1;" vertex="1" parent="1">
          <mxGeometry x="460" y="1050" width="80" height="80" as="geometry" />
        </mxCell>
        <mxCell id="mlwBSb566yAW6RC_EAfB-97" value="Nodearr 추가" style="whiteSpace=wrap;html=1;" vertex="1" parent="1">
          <mxGeometry x="390" y="880" width="120" height="60" as="geometry" />
        </mxCell>
        <mxCell id="mlwBSb566yAW6RC_EAfB-100" value="Nodearr(* new Node(s)" style="whiteSpace=wrap;html=1;" vertex="1" parent="1">
          <mxGeometry x="585" y="1060" width="120" height="60" as="geometry" />
        </mxCell>
        <mxCell id="mlwBSb566yAW6RC_EAfB-108" style="edgeStyle=orthogonalEdgeStyle;rounded=0;orthogonalLoop=1;jettySize=auto;html=1;entryX=0;entryY=0.5;entryDx=0;entryDy=0;" edge="1" parent="1" source="mlwBSb566yAW6RC_EAfB-104" target="mlwBSb566yAW6RC_EAfB-106">
          <mxGeometry relative="1" as="geometry" />
        </mxCell>
        <mxCell id="mlwBSb566yAW6RC_EAfB-104" value="tail.next = nodearr[0]" style="whiteSpace=wrap;html=1;" vertex="1" parent="1">
          <mxGeometry x="1476.88" y="610" width="116.25" height="60" as="geometry" />
        </mxCell>
        <mxCell id="mlwBSb566yAW6RC_EAfB-106" value="nodeArr = {}" style="whiteSpace=wrap;html=1;" vertex="1" parent="1">
          <mxGeometry x="1688.75" y="610" width="120" height="60" as="geometry" />
        </mxCell>
        <mxCell id="mlwBSb566yAW6RC_EAfB-132" style="edgeStyle=orthogonalEdgeStyle;rounded=0;orthogonalLoop=1;jettySize=auto;html=1;" edge="1" parent="1" source="mlwBSb566yAW6RC_EAfB-110" target="mlwBSb566yAW6RC_EAfB-122">
          <mxGeometry relative="1" as="geometry" />
        </mxCell>
        <mxCell id="mlwBSb566yAW6RC_EAfB-110" value="head = NodeArr[0]&lt;br&gt;tail = NodeArr[y - 1]" style="whiteSpace=wrap;html=1;" vertex="1" parent="1">
          <mxGeometry x="2320" y="700" width="120" height="60" as="geometry" />
        </mxCell>
        <mxCell id="mlwBSb566yAW6RC_EAfB-117" value="" style="edgeStyle=orthogonalEdgeStyle;rounded=0;orthogonalLoop=1;jettySize=auto;html=1;" edge="1" parent="1" source="mlwBSb566yAW6RC_EAfB-115" target="mlwBSb566yAW6RC_EAfB-116">
          <mxGeometry relative="1" as="geometry" />
        </mxCell>
        <mxCell id="mlwBSb566yAW6RC_EAfB-115" value="y회 반복" style="ellipse;whiteSpace=wrap;html=1;" vertex="1" parent="1">
          <mxGeometry x="460" y="1190" width="80" height="80" as="geometry" />
        </mxCell>
        <mxCell id="mlwBSb566yAW6RC_EAfB-116" value="NodeArr( new Node(s))" style="whiteSpace=wrap;html=1;" vertex="1" parent="1">
          <mxGeometry x="600" y="1200" width="120" height="60" as="geometry" />
        </mxCell>
        <mxCell id="mlwBSb566yAW6RC_EAfB-121" value="" style="edgeStyle=orthogonalEdgeStyle;rounded=0;orthogonalLoop=1;jettySize=auto;html=1;" edge="1" parent="1" source="mlwBSb566yAW6RC_EAfB-119" target="mlwBSb566yAW6RC_EAfB-120">
          <mxGeometry relative="1" as="geometry" />
        </mxCell>
        <mxCell id="mlwBSb566yAW6RC_EAfB-123" value="" style="edgeStyle=orthogonalEdgeStyle;rounded=0;orthogonalLoop=1;jettySize=auto;html=1;" edge="1" parent="1" source="mlwBSb566yAW6RC_EAfB-119" target="mlwBSb566yAW6RC_EAfB-122">
          <mxGeometry relative="1" as="geometry" />
        </mxCell>
        <mxCell id="mlwBSb566yAW6RC_EAfB-119" value="x == nodeNum인가?" style="rhombus;whiteSpace=wrap;html=1;" vertex="1" parent="1">
          <mxGeometry x="2270" y="980" width="220" height="80" as="geometry" />
        </mxCell>
        <mxCell id="mlwBSb566yAW6RC_EAfB-120" value="tail = nodeArr[y - 1]" style="whiteSpace=wrap;html=1;" vertex="1" parent="1">
          <mxGeometry x="2320" y="1090" width="120" height="60" as="geometry" />
        </mxCell>
        <mxCell id="mlwBSb566yAW6RC_EAfB-122" value="nodeArr초기화" style="whiteSpace=wrap;html=1;" vertex="1" parent="1">
          <mxGeometry x="2620" y="990" width="120" height="60" as="geometry" />
        </mxCell>
        <mxCell id="mlwBSb566yAW6RC_EAfB-127" value="" style="edgeStyle=orthogonalEdgeStyle;rounded=0;orthogonalLoop=1;jettySize=auto;html=1;" edge="1" parent="1" source="mlwBSb566yAW6RC_EAfB-124" target="mlwBSb566yAW6RC_EAfB-126">
          <mxGeometry relative="1" as="geometry" />
        </mxCell>
        <mxCell id="mlwBSb566yAW6RC_EAfB-124" value="y번 반복" style="ellipse;whiteSpace=wrap;html=1;" vertex="1" parent="1">
          <mxGeometry x="1840" y="850" width="80" height="80" as="geometry" />
        </mxCell>
        <mxCell id="mlwBSb566yAW6RC_EAfB-129" value="" style="edgeStyle=orthogonalEdgeStyle;rounded=0;orthogonalLoop=1;jettySize=auto;html=1;" edge="1" parent="1" source="mlwBSb566yAW6RC_EAfB-126" target="mlwBSb566yAW6RC_EAfB-128">
          <mxGeometry relative="1" as="geometry" />
        </mxCell>
        <mxCell id="mlwBSb566yAW6RC_EAfB-130" style="edgeStyle=orthogonalEdgeStyle;rounded=0;orthogonalLoop=1;jettySize=auto;html=1;entryX=1;entryY=0.5;entryDx=0;entryDy=0;" edge="1" parent="1" source="mlwBSb566yAW6RC_EAfB-126" target="mlwBSb566yAW6RC_EAfB-124">
          <mxGeometry relative="1" as="geometry" />
        </mxCell>
        <mxCell id="mlwBSb566yAW6RC_EAfB-126" value="tmphead = tmphead.next" style="whiteSpace=wrap;html=1;" vertex="1" parent="1">
          <mxGeometry x="1820" y="980" width="120" height="60" as="geometry" />
        </mxCell>
        <mxCell id="mlwBSb566yAW6RC_EAfB-131" style="edgeStyle=orthogonalEdgeStyle;rounded=0;orthogonalLoop=1;jettySize=auto;html=1;entryX=0;entryY=0.5;entryDx=0;entryDy=0;" edge="1" parent="1" source="mlwBSb566yAW6RC_EAfB-128" target="mlwBSb566yAW6RC_EAfB-119">
          <mxGeometry relative="1" as="geometry" />
        </mxCell>
        <mxCell id="mlwBSb566yAW6RC_EAfB-128" value="tmphead.next = nodeArr[0]&lt;br&gt;&lt;br&gt;nodeArr[y - 1].next = tmphead.next" style="whiteSpace=wrap;html=1;" vertex="1" parent="1">
          <mxGeometry x="1755.5" y="1090" width="249" height="60" as="geometry" />
        </mxCell>
      </root>
    </mxGraphModel>
  </diagram>
</mxfile>
